<?xml version="1.0" standalone="no"?><!DOCTYPE svg PUBLIC "-//W3C//DTD SVG 1.1//EN" "http://www.w3.org/Graphics/SVG/1.1/DTD/svg11.dtd"><svg t="1627986239703" class="icon" viewBox="0 0 1892 1024" version="1.1" xmlns="http://www.w3.org/2000/svg" p-id="7287" xmlns:xlink="http://www.w3.org/1999/xlink" width="369.53125" height="200"><defs><style type="text/css"></style></defs><path d="M1388.606061 0C1667.10303 0 1892.848485 225.745455 1892.848485 504.242424v15.515152C1892.848485 798.254545 1667.10303 1024 1388.606061 1024h-884.363637C225.745455 1024 0 798.254545 0 519.757576v-15.515152C0 225.745455 225.745455 0 504.242424 0h884.363637zM961.442909 279.272727c-70.376727 0-125.40897 22.419394-165.081212 68.54594-38.36897 43.55103-56.940606 99.917576-56.940606 169.735757 0 69.197576 18.571636 125.564121 56.940606 169.115152 39.672242 44.838788 94.704485 67.909818 165.081212 67.909818 69.725091 0 124.741818-22.419394 165.050182-67.258182 38.4-42.914909 57.592242-99.29697 57.592242-169.751273 0-70.469818-19.192242-127.472485-57.592242-170.402909C1086.215758 301.707636 1031.168 279.272727 961.442909 279.272727zM370.036364 279.272727H294.787879v459.977697h75.248485V535.676121h232.820363v203.574303h75.248485V279.272727h-75.248485v191.984485H370.036364V279.272727zM1598.060606 279.272727H1230.072242v64.418909h147.192243v395.558788h73.603879V343.691636H1598.060606V279.272727z m-636.307394 61.331394c46.855758 0 82.959515 14.475636 108.295758 44.683637 24.700121 30.208 37.360485 71.742061 37.360485 124.602181 0 52.860121-12.660364 93.773576-37.360485 123.345455-25.336242 29.587394-61.44 44.683636-108.295758 44.683636-46.855758 0-83.595636-15.732364-108.916364-46.560969-24.700121-30.208-36.739879-70.485333-36.739878-121.468122 0-51.603394 12.039758-91.880727 36.724363-122.088727 25.972364-31.464727 62.060606-47.197091 108.931879-47.197091z" fill="#d81e06" p-id="7288"></path></svg>